<?xml version="1.0" standalone="no"?>
<!DOCTYPE svg PUBLIC "-//W3C//DTD SVG 20010904//EN"
 "http://www.w3.org/TR/2001/REC-SVG-20010904/DTD/svg10.dtd">
<svg version="1.0" xmlns="http://www.w3.org/2000/svg"
 width="1920.000000pt" height="489.000000pt" viewBox="0 0 1920.000000 489.000000"
 preserveAspectRatio="xMidYMid meet">
<metadata>
Created by potrace 1.16, written by Peter Selinger 2001-2019
</metadata>
<g transform="translate(0.000000,489.000000) scale(0.100000,-0.100000)"
fill="#000000" stroke="none">
<path d="M3745 4190 c-253 -51 -474 -169 -655 -350 -184 -183 -301 -404 -351
-663 -17 -88 -19 -148 -19 -622 0 -474 2 -534 19 -622 50 -259 167 -480 351
-663 183 -184 404 -301 663 -351 95 -18 189 -19 2987 -19 2798 0 2892 1 2987
19 259 50 480 167 663 351 144 144 250 317 313 510 l24 75 2737 3 2736 2 0 50
0 50 -2722 0 -2723 0 3 552 c3 484 1 565 -14 648 -46 262 -167 493 -354 680
-183 184 -404 301 -663 351 -95 18 -187 19 -2995 18 -2755 -1 -2901 -2 -2987
-19z m2140 -836 c183 -47 290 -190 331 -442 22 -134 14 -405 -14 -513 -66
-249 -216 -369 -457 -369 -44 0 -100 5 -124 11 -113 26 -221 111 -275 216 -65
129 -96 353 -77 559 28 311 137 484 340 540 65 17 206 17 276 -2z m4518 -4
c90 -23 154 -57 198 -107 l31 -36 -70 -70 -70 -69 -39 39 c-70 70 -167 99
-278 81 -161 -25 -259 -128 -301 -317 -23 -101 -15 -309 15 -401 56 -178 176
-262 371 -263 52 0 110 3 128 7 l32 8 0 154 0 154 -135 0 -135 0 0 90 0 90
225 0 225 0 0 -314 0 -314 -92 -23 c-126 -30 -325 -37 -428 -15 -204 43 -341
177 -395 384 -54 209 -33 496 47 657 71 141 206 243 363 275 78 16 228 11 308
-10z m-6740 -23 c183 -62 291 -180 349 -384 19 -67 22 -102 23 -253 0 -192
-10 -251 -65 -368 -36 -77 -125 -169 -199 -206 -106 -54 -182 -66 -428 -66
l-223 0 0 651 0 651 248 -5 c192 -3 258 -8 295 -20z m749 -464 c3 -535 3 -530
66 -596 47 -49 167 -71 257 -46 52 15 119 82 134 134 7 27 11 199 11 518 l0
477 95 0 95 0 0 -492 c0 -386 -3 -504 -14 -545 -51 -193 -185 -283 -419 -283
-105 0 -188 21 -255 66 -65 43 -106 98 -134 183 -22 64 -22 82 -26 569 l-3
502 95 0 95 0 3 -487z m2218 -73 l0 -560 340 0 340 0 0 -90 0 -90 -435 0 -435
0 0 650 0 650 95 0 95 0 0 -560z m1720 470 l0 -90 -155 0 -155 0 0 -470 0
-470 155 0 155 0 0 -90 0 -90 -400 0 -400 0 0 90 0 90 150 0 150 0 0 470 0
470 -150 0 -150 0 0 90 0 90 400 0 400 0 0 -90z m523 78 c78 -198 391 -956
398 -963 5 -5 9 186 9 483 l0 492 95 0 95 0 0 -650 0 -651 -122 3 -122 3 -200
488 c-109 268 -203 487 -207 487 -5 0 -9 -220 -9 -490 l0 -490 -90 0 -90 0 0
650 0 650 119 0 c86 0 120 -3 124 -12z m1827 -1428 l0 -50 -3855 0 -3855 0 0
50 0 50 3855 0 3855 0 0 -50z"/>
<path d="M5691 3189 c-128 -25 -200 -150 -223 -385 -12 -133 0 -295 32 -396
41 -135 124 -201 249 -200 131 0 213 73 256 227 25 89 31 346 12 456 -39 226
-155 332 -326 298z"/>
<path d="M3310 2701 l0 -471 103 0 c238 0 358 82 408 280 18 72 21 103 16 210
-8 198 -58 319 -160 387 -69 46 -106 55 -244 60 l-123 5 0 -471z"/>
<path d="M10850 2700 l0 -650 430 0 430 0 0 90 0 90 -340 0 -340 0 0 190 0
190 255 0 255 0 0 90 0 90 -255 0 -255 0 0 190 0 190 340 0 340 0 0 90 0 90
-430 0 -430 0 0 -650z"/>
<path d="M11940 2700 l0 -650 85 0 85 0 0 490 c0 437 2 490 16 490 8 0 12 -4
9 -10 -3 -5 -1 -10 5 -10 7 0 10 -7 6 -15 -3 -8 -1 -15 5 -15 6 0 7 -4 4 -10
-3 -5 -2 -10 4 -10 6 0 8 -7 5 -15 -4 -8 -1 -15 6 -15 6 0 8 -4 5 -10 -3 -5
-1 -10 5 -10 6 0 8 -4 5 -10 -3 -5 -1 -10 5 -10 7 0 10 -7 6 -15 -3 -8 -1 -15
5 -15 6 0 7 -4 4 -10 -3 -5 -1 -10 5 -10 7 0 10 -7 6 -15 -3 -8 -1 -15 5 -15
6 0 7 -4 4 -10 -3 -5 -1 -10 5 -10 7 0 10 -7 6 -15 -3 -8 -1 -15 5 -15 6 0 7
-4 4 -10 -3 -5 -1 -10 5 -10 7 0 10 -7 6 -15 -3 -8 -1 -15 5 -15 6 0 7 -4 4
-10 -3 -5 -1 -10 5 -10 6 0 8 -4 5 -10 -3 -5 -1 -10 5 -10 7 0 10 -7 6 -15 -3
-8 -1 -15 5 -15 6 0 7 -4 4 -10 -3 -5 -1 -10 5 -10 7 0 10 -7 6 -15 -3 -8 -1
-15 5 -15 6 0 7 -4 4 -10 -3 -5 -1 -10 5 -10 7 0 10 -7 6 -15 -3 -8 -1 -15 5
-15 6 0 7 -4 4 -10 -3 -5 -1 -10 5 -10 7 0 10 -7 6 -15 -3 -8 -1 -15 5 -15 6
0 7 -4 4 -10 -3 -5 -1 -10 5 -10 6 0 9 -4 5 -9 -3 -5 -1 -12 5 -16 6 -4 8 -11
5 -16 -4 -5 -1 -9 5 -9 6 0 8 -4 5 -10 -3 -5 -1 -10 5 -10 7 0 10 -7 6 -15 -3
-8 -1 -15 5 -15 6 0 7 -4 4 -10 -3 -5 -1 -10 5 -10 7 0 10 -7 6 -15 -3 -8 -1
-15 5 -15 6 0 8 -4 5 -9 -4 -5 -1 -11 4 -13 6 -2 12 -13 13 -26 0 -12 5 -22 9
-22 4 0 5 -7 2 -15 -4 -8 -1 -15 6 -15 6 0 8 -4 5 -10 -3 -5 -1 -10 5 -10 6 0
8 -4 5 -10 -3 -5 -1 -10 5 -10 7 0 10 -7 6 -15 -3 -8 -1 -15 5 -15 6 0 7 -4 4
-10 -3 -5 -1 -10 5 -10 7 0 10 -7 6 -15 -3 -8 -1 -15 5 -15 6 0 7 -4 4 -10 -3
-5 -1 -10 5 -10 7 0 10 -7 6 -15 -5 -13 12 -15 114 -15 l120 0 0 650 0 650
-90 0 -90 0 2 -494 c2 -312 -1 -494 -7 -493 -5 1 -100 223 -210 492 l-201 490
-112 3 -112 3 0 -651z"/>
<path d="M13020 2700 l0 -650 218 0 c158 0 234 4 281 15 137 33 255 111 321
215 97 151 125 439 64 674 -38 147 -142 278 -266 336 -114 53 -162 60 -400 60
l-218 0 0 -650z m471 455 c7 -5 22 -11 32 -12 10 -2 28 -8 39 -14 32 -17 98
-80 93 -89 -3 -4 2 -11 11 -14 8 -3 12 -10 9 -16 -3 -5 -1 -10 5 -10 6 0 8 -4
5 -10 -3 -5 -1 -10 5 -10 6 0 8 -4 5 -10 -3 -5 -1 -10 5 -10 7 0 10 -7 6 -15
-3 -8 -1 -15 5 -15 6 0 9 -7 5 -15 -3 -8 -1 -15 5 -15 6 0 8 -9 4 -19 -3 -11
-1 -22 5 -26 5 -3 7 -17 4 -31 -3 -13 -1 -30 5 -38 7 -9 10 -47 6 -112 -2 -55
-5 -111 -5 -126 0 -16 -5 -28 -11 -28 -6 0 -8 -9 -4 -20 4 -11 2 -20 -4 -20
-6 0 -8 -7 -5 -15 4 -8 1 -15 -6 -15 -6 0 -8 -4 -5 -10 3 -5 1 -10 -5 -10 -6
0 -8 -4 -5 -10 3 -5 1 -10 -5 -10 -6 0 -8 -4 -5 -10 3 -5 1 -10 -4 -10 -6 0
-10 -4 -8 -9 1 -5 -7 -17 -18 -26 -11 -9 -13 -14 -5 -10 8 3 -2 -10 -24 -29
-21 -20 -43 -33 -47 -30 -5 3 -9 0 -9 -6 0 -6 -4 -8 -10 -5 -5 3 -10 1 -10 -5
0 -6 -4 -8 -10 -5 -5 3 -10 2 -10 -3 0 -16 -109 -32 -217 -32 l-103 0 0 471 0
472 133 -5 c73 -2 140 -8 148 -13z"/>
<path d="M14150 2700 l0 -650 430 0 430 0 0 90 0 90 -340 0 -340 0 0 190 0
190 255 0 255 0 0 90 0 90 -255 0 -255 0 0 190 0 190 340 0 340 0 0 90 0 90
-430 0 -430 0 0 -650z"/>
<path d="M15220 2700 l0 -650 95 0 95 0 0 245 0 245 146 0 c94 0 143 -4 139
-10 -3 -5 -1 -10 5 -10 6 0 8 -4 5 -10 -3 -5 -2 -10 3 -10 12 0 34 -49 27 -61
-4 -5 -1 -9 5 -9 6 0 8 -4 5 -10 -3 -5 -1 -10 5 -10 6 0 8 -4 5 -10 -3 -5 -1
-10 5 -10 6 0 8 -4 5 -10 -3 -5 -1 -10 5 -10 6 0 8 -4 5 -10 -3 -5 -1 -10 5
-10 6 0 8 -4 5 -10 -3 -5 -1 -10 5 -10 6 0 8 -4 5 -10 -3 -5 -1 -10 5 -10 6 0
8 -4 5 -10 -3 -6 -1 -10 5 -10 6 0 8 -4 5 -10 -3 -5 -1 -10 5 -10 6 0 8 -4 5
-10 -3 -5 -1 -10 6 -10 7 0 10 -3 6 -6 -3 -4 1 -13 9 -21 8 -9 13 -22 10 -30
-4 -9 -2 -11 6 -7 8 5 9 2 5 -9 -3 -10 -2 -17 4 -17 6 0 7 -4 4 -10 -3 -5 -1
-10 5 -10 6 0 8 -4 5 -10 -3 -5 -1 -10 5 -10 6 0 8 -4 5 -10 -3 -5 -1 -10 5
-10 6 0 8 -4 5 -10 -3 -5 -1 -10 5 -10 6 0 9 -4 6 -9 -3 -5 1 -12 10 -15 24
-9 216 -7 212 2 -1 5 -61 123 -132 262 -117 231 -127 255 -111 265 139 80 199
195 198 375 -1 192 -89 317 -262 371 -56 17 -93 19 -337 19 l-274 0 0 -650z
m568 455 c4 -5 14 -11 22 -13 8 -2 26 -15 40 -29 14 -14 18 -23 10 -19 -10 5
-9 2 2 -7 10 -8 15 -17 11 -20 -3 -4 -1 -7 6 -7 7 0 9 -4 6 -10 -3 -5 -1 -10
5 -10 7 0 9 -8 5 -19 -3 -11 -1 -22 5 -26 13 -8 13 -115 -1 -115 -6 0 -8 -9
-4 -20 4 -12 2 -20 -5 -20 -6 0 -8 -4 -5 -10 3 -5 1 -10 -5 -10 -6 0 -9 -4 -6
-8 3 -5 -8 -22 -24 -37 -17 -16 -30 -25 -30 -21 0 4 -7 0 -16 -8 -8 -9 -19
-14 -24 -11 -5 3 -11 1 -15 -5 -4 -6 -73 -10 -181 -10 l-174 0 0 226 0 226
185 -4 c109 -2 189 -7 193 -13z"/>
</g>
</svg>
